<?xml version="1.0" encoding="UTF-8" standalone="no"?>
<svg width="23px" height="18px" viewBox="0 0 23 18" version="1.1" xmlns="http://www.w3.org/2000/svg" xmlns:xlink="http://www.w3.org/1999/xlink" xmlns:sketch="http://www.bohemiancoding.com/sketch/ns">
    <!-- Generator: Sketch 3.0.4 (8054) - http://www.bohemiancoding.com/sketch -->
    <title>Slice 2</title>
    <desc>Created with Sketch.</desc>
    <defs></defs>
    <g id="Page-1" stroke="none" stroke-width="1" fill="none" fill-rule="evenodd" sketch:type="MSPage">
        <g id="Imported-Layers" sketch:type="MSLayerGroup" fill="#FFFFFF">
            <g id="Fill-3-+-Fill-3-+-Fill-4" sketch:type="MSShapeGroup">
                <path d="M0,13.0554375 L5.3956875,13.0554375 L10.35825,18.018 L12.193125,18.018 L12.193125,0 L10.35825,0 L5.3956875,4.9625625 L0,4.9625625 L0,13.0554375" id="Fill-3"></path>
                <path d="M15.4186875,13.846375 L15.0013125,12.6008125 C16.582875,12.0705625 17.646,10.594 17.646,8.9231875 C17.646,7.2536875 16.582875,5.7745 15,5.24425 L15.4186875,4 C17.53575,4.7100625 18.9585,6.688 18.9585,8.9231875 C18.9585,11.158375 17.53575,13.1363125 15.4186875,13.846375" id="Fill-3"></path>
                <path d="M17.5735625,17.13325 L17,15.9533125 C19.6551875,14.657875 21.305,12.01975 21.305,9.066625 C21.305,6.1135 19.6551875,3.4740625 17,2.178625 L17.5735625,1 C20.6841875,2.5159375 22.6175,5.606875 22.6175,9.066625 C22.6175,12.5250625 20.6841875,15.616 17.5735625,17.13325" id="Fill-4"></path>
            </g>
        </g>
    </g>
</svg>