<?xml version="1.0" encoding="UTF-8" standalone="no"?>
<svg width="56px" height="44px" viewBox="0 0 56 44" version="1.1" xmlns="http://www.w3.org/2000/svg" xmlns:xlink="http://www.w3.org/1999/xlink" xmlns:sketch="http://www.bohemiancoding.com/sketch/ns">
    <!-- Generator: Sketch 3.0.4 (8054) - http://www.bohemiancoding.com/sketch -->
    <title>Slice 2</title>
    <desc>Created with Sketch.</desc>
    <defs></defs>
    <g id="Page-1" stroke="none" stroke-width="1" fill="none" fill-rule="evenodd" sketch:type="MSPage">
        <g id="Imported-Layers-3" sketch:type="MSLayerGroup">
            <path d="M8.08348871,6 L5.5,6 L5.5,26.5 L14.5,26.5 L14.5,24.1187954 L8.08348871,24.1187954 L8.08348871,6" id="Fill-2" fill="#FFFFFF" sketch:type="MSShapeGroup"></path>
            <path d="M17,26.5 L19.5,26.5 L19.5,6 L17,6 L17,26.5" id="Fill-5" fill="#FFFFFF" sketch:type="MSShapeGroup"></path>
            <path d="M28.2722171,24.0258329 L27.7004659,24.0258329 L25.0322228,6 L22.5,6 L25.5494812,26.5 L30.396026,26.5 L33.5,6 L30.9951648,6 L28.2722171,24.0258329" id="Fill-6" fill="#FFFFFF" sketch:type="MSShapeGroup"></path>
            <path d="M36,26.5 L45,26.5 L45,24.009314 L38.5515445,24.009314 L38.5515445,17.6048955 L43.6262144,17.6048955 L43.6262144,15.1141385 L38.5515445,15.1141385 L38.5515445,8.49075699 L44.6074379,8.49075699 L44.6074379,6 L36,6 L36,26.5" id="Fill-7" fill="#FFFFFF" sketch:type="MSShapeGroup"></path>
            <path d="M10.1005082,40.2070964 L6.85719375,40.2070964 C6.55175034,40.2070964 6.30416093,40.4471638 6.30416093,40.7433571 C6.30416093,41.0395504 6.55175034,41.2796866 6.857265,41.2796866 L8.9741367,41.2796866 L8.9741367,41.8213877 C8.9741367,42.2461541 8.41141405,42.5936527 7.72357859,42.5936527 L2.75248183,42.5936527 C2.06464637,42.5936527 1.50192372,42.2461541 1.50192372,41.8213877 L1.50192372,38.7536764 C1.50192372,38.3289789 2.06464637,37.9814114 2.75248183,37.9814114 L5.1428775,37.9813426 C5.42231511,37.9813426 5.64888614,37.7616596 5.64888614,37.4906713 C5.64888614,37.219683 5.42231511,37 5.1428775,37 L2.59894077,37 C1.16954828,37 0,37.7239898 0,38.6089198 L0,41.8910802 C0,42.7759413 1.16954828,43.5 2.59894077,43.5 L7.90098798,43.5 C9.33038047,43.5 10.5,42.7759413 10.5,41.8910802 L10.5,40.5932289 C10.5,40.3808457 10.3202394,40.2070964 10.1005082,40.2070964" id="Fill-8" fill="#FFFFFF" sketch:type="MSShapeGroup"></path>
            <path d="M18.0749703,38.5 L14.9250297,38.5 C13.3162249,38.5 12,39.30439 12,40.2875497 L12,42.2125239 C12,43.19561 13.3162249,44 14.9250297,44 L18.0749703,44 C19.6837751,44 21,43.19561 21,42.2125239 L21,40.2875497 C21,39.30439 19.6837751,38.5 18.0749703,38.5 L18.0749703,38.5 Z M19.5,42.1871052 C19.5,42.6342191 18.8732633,43 18.1072972,43 L14.8926348,43 C14.1266686,43 13.5,42.6342191 13.5,42.1871052 L13.5,40.3128948 C13.5,39.8657809 14.1266686,39.5 14.8926348,39.5 L18.1072972,39.5 C18.8732633,39.5 19.5,39.8657809 19.5,40.3128948 L19.5,42.1871052 L19.5,42.1871052 Z" id="Fill-9" fill="#FFFFFF" sketch:type="MSShapeGroup"></path>
            <path d="M30.484465,37 L23.4589742,37 C23.2064753,37 23,37.2160213 23,37.480031 L23,43.5200423 C23,43.7839787 23.2065454,44 23.4589742,44 L24.0708931,44 C24.3232517,44 24.5297971,43.7839787 24.5297971,43.5200423 L24.5297971,41.5142875 L30.484465,41.5142875 C32.1430022,41.5142875 33.5,40.7119856 33.5,39.7314514 L33.5,38.7829095 C33.5,37.8023019 32.1430022,37 30.484465,37 L30.484465,37 Z M32,39.7220115 C32,40.1498641 31.4168307,40.5 30.7040214,40.5 L24.5,40.5 L24.5,38 L30.7040214,38 C31.4168307,38 32,38.3500612 32,38.7779885 L32,39.7220115 L32,39.7220115 Z" id="Fill-10" fill="#FFFFFF" sketch:type="MSShapeGroup"></path>
            <path d="M39.0207925,38.5 L38.0188987,38.5 C36.3585369,38.5 35,39.3048098 35,40.2884826 L35,43.5185421 C35,43.7833034 35.212628,44 35.4724906,44 L35.9879546,44 C36.2478172,44 36.4604452,43.7833034 36.4604452,43.5185421 L36.4604452,40.2998916 C36.4604452,39.8458888 37.1255577,39.474472 37.9385131,39.474472 L39.0207925,39.474472 C39.2854942,39.474472 39.5,39.2563034 39.5,38.9872728 C39.5,38.7181687 39.2854942,38.5 39.0207925,38.5" id="Fill-11" fill="#FFFFFF" sketch:type="MSShapeGroup"></path>
            <path d="M46.574993,38.5 L43.425007,38.5 C41.8162147,38.5 40.5,39.30439 40.5,40.2875497 L40.5,42.2125239 C40.5,43.19561 41.8162147,44 43.425007,44 L46.574993,44 C48.1837154,44 49.5,43.19561 49.5,42.2125239 L49.5,40.2875497 C49.5,39.30439 48.1837154,38.5 46.574993,38.5 L46.574993,38.5 Z M48,42.1871052 C48,42.6342191 47.3733314,43 46.6073652,43 L43.3927028,43 C42.6267367,43 42,42.6342191 42,42.1871052 L42,40.3128948 C42,39.8657809 42.6267367,39.5 43.3927028,39.5 L46.6073652,39.5 C47.3733314,39.5 48,39.8657809 48,40.3128948 L48,42.1871052 L48,42.1871052 Z" id="Fill-12" fill="#FFFFFF" sketch:type="MSShapeGroup"></path>
            <path d="M47,17.6167635 L47,21.2793935 L53.4864461,21.2793935 L53.4864461,26.5 L56,26.5 L56,6 L51.3785053,6 L47,17.6167635 L47,17.6167635 Z M53.5,8.5 L53.5,19 L49.5,19 L49.5,18.2559094 L53.1218602,8.5 L53.5,8.5 L53.5,8.5 Z" id="Fill-13" fill="#FFFFFF" sketch:type="MSShapeGroup"></path>
            <path d="M0,0 L0,33 L49.5,33 L49.5,24.5 L47,24.5 L47,30.5 L2.5,30.5 L2.5,2.5 L47,2.5 L47,8.5 L47.5866417,8.70224003 L49.5,3.70992793 L49.5,0 L0,0 Z" id="Fill-14" fill="#D0011B" sketch:type="MSShapeGroup"></path>
        </g>
    </g>
</svg>