<svg xmlns="http://www.w3.org/2000/svg" viewBox="0 0 150 150" enable-background="new 0 0 150 150"><title>Slice 2</title><desc>Created with Sketch.</desc><g opacity=".6"><path fill-opacity=".6" d="M149 74.9c0-20.5-8.3-39-21.7-52.5C113.9 9 95.3.7 74.8.7S35.8 9 22.3 22.4C8.9 35.9.6 54.4.6 74.9s8.3 39 21.7 52.5c13.4 13.4 32 21.7 52.4 21.7 20.5 0 39-8.3 52.5-21.7 13.5-13.5 21.8-32 21.8-52.5h-4.4"/><path fill="#fff" d="M55.4 107.9v-66l52 33-52 33"/><path fill="#fff" d="M5.1 74.9c0 38.5 31.2 69.7 69.7 69.7s69.7-31.2 69.7-69.7h-1c0 19-7.7 36.2-20.1 48.6-12.4 12.5-29.6 20.2-48.6 20.2s-36.2-7.7-48.6-20.1C13.8 111.1 6.1 93.9 6.1 74.9c0-19 7.7-36.2 20.1-48.6C38.6 13.8 55.8 6.1 74.8 6.1s36.2 7.7 48.6 20.1 20.1 29.6 20.1 48.6h1c0-38.5-31.2-69.7-69.7-69.7-38.5.1-69.7 31.3-69.7 69.8z"/></g></svg>