<svg width="23" height="18" viewBox="0 0 23 18" xmlns="http://www.w3.org/2000/svg"><title>Slice 2</title><desc>Created with Sketch.</desc><g fill="#fff"><path d="M0 13.055h5.396l4.962 4.963h1.835V0h-1.835L5.396 4.963H0v8.092M15.42 13.846L15 12.6c1.583-.53 2.646-2.006 2.646-3.677 0-1.67-1.063-3.15-2.646-3.68L15.42 4c2.116.71 3.54 2.688 3.54 4.923-.002 2.235-1.424 4.213-3.54 4.923"/><path d="M17.574 17.133L17 15.953c2.655-1.295 4.305-3.933 4.305-6.886 0-2.954-1.65-5.593-4.305-6.888L17.574 1c3.11 1.516 5.043 4.607 5.043 8.067 0 3.458-1.933 6.55-5.043 8.066"/></g></svg>