<svg width="56" height="44" viewBox="0 0 56 44" xmlns="http://www.w3.org/2000/svg"><title>Slice 2</title><desc>Created with Sketch.</desc><g fill="none"><path d="M8.083 6H5.5v20.5h9v-2.38H8.083V6" fill="#fff"/><path d="M17 26.5h2.5V6H17v20.5" fill="#fff"/><path d="M28.272 24.026H27.7L25.032 6H22.5l3.05 20.5h4.846L33.5 6h-2.505l-2.723 18.026" fill="#fff"/><path d="M36 26.5h9v-2.49h-6.448v-6.405h5.074v-2.49h-5.074V8.49h6.055V6H36v20.5" fill="#fff"/><path d="M10.1 40.207H6.858c-.305 0-.553.24-.553.536 0 .297.248.537.553.537h2.117v.54c0 .426-.563.774-1.25.774H2.752c-.687 0-1.25-.348-1.25-.773v-3.066c0-.425.563-.773 1.25-.773h2.39c.28 0 .507-.218.507-.49 0-.27-.228-.49-.507-.49H2.6c-1.43 0-2.6.724-2.6 1.61v3.28c0 .886 1.17 1.61 2.6 1.61h5.3c1.43 0 2.6-.724 2.6-1.61v-1.297c0-.212-.18-.386-.4-.386" fill="#fff"/><path d="M18.075 38.5h-3.15c-1.61 0-2.925.804-2.925 1.788v1.925C12 43.196 13.316 44 14.925 44h3.15c1.61 0 2.925-.804 2.925-1.787v-1.925c0-.984-1.316-1.788-2.925-1.788zm1.425 3.687c0 .447-.627.813-1.393.813h-3.214c-.766 0-1.393-.366-1.393-.813v-1.874c0-.447.627-.813 1.393-.813h3.214c.766 0 1.393.366 1.393.813v1.874z" fill="#fff"/><path d="M30.484 37H23.46c-.254 0-.46.216-.46.48v6.04c0 .264.207.48.46.48h.61c.253 0 .46-.216.46-.48v-2.006h5.954c1.66 0 3.016-.802 3.016-1.783v-.947c0-.98-1.357-1.783-3.016-1.783zM32 39.722c0 .428-.583.778-1.296.778H24.5V38h6.204c.713 0 1.296.35 1.296.778v.944z" fill="#fff"/><path d="M39.02 38.5h-1c-1.66 0-3.02.805-3.02 1.788v3.23c0 .265.213.482.472.482h.516c.26 0 .472-.217.472-.48V40.3c0-.454.666-.826 1.48-.826h1.08c.265 0 .48-.218.48-.487 0-.27-.215-.487-.48-.487" fill="#fff"/><path d="M46.575 38.5h-3.15c-1.61 0-2.925.804-2.925 1.788v1.925c0 .983 1.316 1.787 2.925 1.787h3.15c1.61 0 2.925-.804 2.925-1.787v-1.925c0-.984-1.316-1.788-2.925-1.788zM48 42.187c0 .447-.627.813-1.393.813h-3.214c-.766 0-1.393-.366-1.393-.813v-1.874c0-.447.627-.813 1.393-.813h3.214c.766 0 1.393.366 1.393.813v1.874z" fill="#fff"/><path d="M47 17.617v3.662h6.486v5.22H56V6h-4.62L47 17.617zM53.5 8.5V19h-4v-.744L53.122 8.5h.378z" fill="#fff"/><path d="M0 0v33h49.5v-8.5H47v6H2.5v-28H47v6l.587.202L49.5 3.71V0H0z" fill="#D0011B"/></g></svg>